<svg xmlns="http://www.w3.org/2000/svg" xmlns:xlink="http://www.w3.org/1999/xlink" zoomAndPan="magnify" preserveAspectRatio="xMidYMid meet" version="1.0" viewBox="4.34 4.87 225.01 18.98"><defs><g/></defs><g fill="#000000" fill-opacity="1"><g transform="translate(0.934029, 23.511605)"><g><path d="M 25.515625 -9.125 C 25.515625 -7.28125 25.039062 -5.644531 24.09375 -4.21875 C 23.144531 -2.789062 21.835938 -1.671875 20.171875 -0.859375 C 18.503906 -0.0546875 16.609375 0.34375 14.484375 0.34375 C 12.328125 0.34375 10.414062 -0.0546875 8.75 -0.859375 C 7.082031 -1.671875 5.773438 -2.789062 4.828125 -4.21875 C 3.878906 -5.644531 3.40625 -7.28125 3.40625 -9.125 C 3.40625 -10.976562 3.878906 -12.613281 4.828125 -14.03125 C 5.773438 -15.457031 7.082031 -16.578125 8.75 -17.390625 C 10.414062 -18.203125 12.328125 -18.609375 14.484375 -18.609375 C 16.609375 -18.609375 18.503906 -18.203125 20.171875 -17.390625 C 21.835938 -16.578125 23.144531 -15.457031 24.09375 -14.03125 C 25.039062 -12.613281 25.515625 -10.976562 25.515625 -9.125 Z M 21.875 -9.125 C 21.894531 -10.351562 21.582031 -11.4375 20.9375 -12.375 C 20.289062 -13.3125 19.398438 -14.039062 18.265625 -14.5625 C 17.128906 -15.082031 15.867188 -15.34375 14.484375 -15.34375 C 13.066406 -15.34375 11.789062 -15.082031 10.65625 -14.5625 C 9.519531 -14.039062 8.625 -13.3125 7.96875 -12.375 C 7.3125 -11.4375 7.003906 -10.351562 7.046875 -9.125 C 7.003906 -7.925781 7.3125 -6.859375 7.96875 -5.921875 C 8.625 -4.984375 9.519531 -4.25 10.65625 -3.71875 C 11.789062 -3.1875 13.066406 -2.921875 14.484375 -2.921875 C 15.867188 -2.921875 17.128906 -3.1875 18.265625 -3.71875 C 19.398438 -4.25 20.289062 -4.984375 20.9375 -5.921875 C 21.582031 -6.859375 21.894531 -7.925781 21.875 -9.125 Z M 21.875 -9.125 "/></g></g></g><g fill="#000000" fill-opacity="1"><g transform="translate(29.850797, 23.511605)"><g><path d="M 6.25 -18.234375 L 13.234375 -4.125 L 20.421875 -18.234375 L 24.296875 -18.234375 L 14.578125 0 L 11.5625 0 L 2.15625 -18.234375 Z M 6.25 -18.234375 "/></g></g></g><g fill="#000000" fill-opacity="1"><g transform="translate(56.302874, 23.511605)"><g><path d="M 23.5 -2.390625 L 23.46875 -2.390625 C 22.84375 -1.929688 22.054688 -1.488281 21.109375 -1.0625 C 20.160156 -0.632812 19.125 -0.289062 18 -0.03125 C 16.875 0.21875 15.722656 0.34375 14.546875 0.34375 C 12.296875 0.34375 10.316406 -0.0507812 8.609375 -0.84375 C 6.898438 -1.644531 5.5625 -2.742188 4.59375 -4.140625 C 3.632812 -5.546875 3.15625 -7.140625 3.15625 -8.921875 C 3.15625 -10.960938 3.664062 -12.703125 4.6875 -14.140625 C 5.707031 -15.585938 7.054688 -16.695312 8.734375 -17.46875 C 10.410156 -18.25 12.242188 -18.640625 14.234375 -18.640625 C 16.085938 -18.640625 17.773438 -18.265625 19.296875 -17.515625 C 20.828125 -16.765625 22.039062 -15.726562 22.9375 -14.40625 C 23.84375 -13.082031 24.296875 -11.546875 24.296875 -9.796875 L 24.265625 -8.0625 L 6.8125 -8.0625 C 7.101562 -6.476562 8 -5.226562 9.5 -4.3125 C 11.007812 -3.40625 12.890625 -2.953125 15.140625 -2.953125 C 16.785156 -2.953125 18.144531 -3.191406 19.21875 -3.671875 C 20.289062 -4.160156 21.164062 -4.625 21.84375 -5.0625 Z M 14.234375 -15.34375 C 12.429688 -15.34375 10.851562 -15.003906 9.5 -14.328125 C 8.144531 -13.660156 7.28125 -12.519531 6.90625 -10.90625 L 20.65625 -10.90625 L 20.65625 -11.359375 C 20.539062 -12.140625 20.171875 -12.832031 19.546875 -13.4375 C 18.921875 -14.039062 18.140625 -14.507812 17.203125 -14.84375 C 16.265625 -15.175781 15.273438 -15.34375 14.234375 -15.34375 Z M 14.234375 -15.34375 "/></g></g></g><g fill="#000000" fill-opacity="1"><g transform="translate(84.31708, 23.511605)"><g><path d="M 18.671875 -14.0625 C 18.253906 -14.289062 17.742188 -14.472656 17.140625 -14.609375 C 16.546875 -14.753906 15.972656 -14.828125 15.421875 -14.828125 C 14.253906 -14.828125 13.21875 -14.570312 12.3125 -14.0625 C 11.414062 -13.550781 10.707031 -12.878906 10.1875 -12.046875 C 9.664062 -11.210938 9.40625 -10.332031 9.40625 -9.40625 L 9.40625 0 L 5.796875 0 L 5.796875 -18.234375 L 9.40625 -18.234375 L 9.40625 -14.40625 C 10.101562 -15.632812 11.054688 -16.640625 12.265625 -17.421875 C 13.484375 -18.210938 14.753906 -18.609375 16.078125 -18.609375 C 16.742188 -18.609375 17.398438 -18.535156 18.046875 -18.390625 C 18.703125 -18.253906 19.222656 -18.0625 19.609375 -17.8125 Z M 18.671875 -14.0625 "/></g></g></g><g fill="#000000" fill-opacity="1"><g transform="translate(106.707615, 23.511605)"><g><path d="M 7.015625 -9.125 C 7.015625 -7.925781 7.328125 -6.859375 7.953125 -5.921875 C 8.578125 -4.984375 9.414062 -4.238281 10.46875 -3.6875 C 11.519531 -3.144531 12.679688 -2.875 13.953125 -2.875 C 15.578125 -2.875 16.96875 -3.15625 18.125 -3.71875 C 19.28125 -4.289062 20.265625 -4.890625 21.078125 -5.515625 L 23.046875 -2.84375 C 21.960938 -1.988281 20.644531 -1.242188 19.09375 -0.609375 C 17.539062 0.0234375 15.769531 0.34375 13.78125 0.34375 C 11.8125 0.34375 10.039062 -0.0703125 8.46875 -0.90625 C 6.894531 -1.738281 5.65625 -2.867188 4.75 -4.296875 C 3.851562 -5.734375 3.40625 -7.34375 3.40625 -9.125 C 3.40625 -10.9375 3.851562 -12.550781 4.75 -13.96875 C 5.65625 -15.394531 6.894531 -16.523438 8.46875 -17.359375 C 10.039062 -18.191406 11.8125 -18.609375 13.78125 -18.609375 C 15.769531 -18.609375 17.585938 -18.285156 19.234375 -17.640625 C 20.878906 -16.992188 22.148438 -16.125 23.046875 -15.03125 L 21.046875 -12.296875 C 20.503906 -12.847656 19.835938 -13.359375 19.046875 -13.828125 C 18.265625 -14.304688 17.425781 -14.679688 16.53125 -14.953125 C 15.644531 -15.234375 14.773438 -15.375 13.921875 -15.375 C 12.554688 -15.375 11.359375 -15.101562 10.328125 -14.5625 C 9.296875 -14.019531 8.484375 -13.28125 7.890625 -12.34375 C 7.304688 -11.40625 7.015625 -10.332031 7.015625 -9.125 Z M 7.015625 -9.125 "/></g></g></g><g fill="#000000" fill-opacity="1"><g transform="translate(132.951406, 23.511605)"><g><path d="M 25.515625 -9.125 C 25.515625 -7.28125 25.039062 -5.644531 24.09375 -4.21875 C 23.144531 -2.789062 21.835938 -1.671875 20.171875 -0.859375 C 18.503906 -0.0546875 16.609375 0.34375 14.484375 0.34375 C 12.328125 0.34375 10.414062 -0.0546875 8.75 -0.859375 C 7.082031 -1.671875 5.773438 -2.789062 4.828125 -4.21875 C 3.878906 -5.644531 3.40625 -7.28125 3.40625 -9.125 C 3.40625 -10.976562 3.878906 -12.613281 4.828125 -14.03125 C 5.773438 -15.457031 7.082031 -16.578125 8.75 -17.390625 C 10.414062 -18.203125 12.328125 -18.609375 14.484375 -18.609375 C 16.609375 -18.609375 18.503906 -18.203125 20.171875 -17.390625 C 21.835938 -16.578125 23.144531 -15.457031 24.09375 -14.03125 C 25.039062 -12.613281 25.515625 -10.976562 25.515625 -9.125 Z M 21.875 -9.125 C 21.894531 -10.351562 21.582031 -11.4375 20.9375 -12.375 C 20.289062 -13.3125 19.398438 -14.039062 18.265625 -14.5625 C 17.128906 -15.082031 15.867188 -15.34375 14.484375 -15.34375 C 13.066406 -15.34375 11.789062 -15.082031 10.65625 -14.5625 C 9.519531 -14.039062 8.625 -13.3125 7.96875 -12.375 C 7.3125 -11.4375 7.003906 -10.351562 7.046875 -9.125 C 7.003906 -7.925781 7.3125 -6.859375 7.96875 -5.921875 C 8.625 -4.984375 9.519531 -4.25 10.65625 -3.71875 C 11.789062 -3.1875 13.066406 -2.921875 14.484375 -2.921875 C 15.867188 -2.921875 17.128906 -3.1875 18.265625 -3.71875 C 19.398438 -4.25 20.289062 -4.984375 20.9375 -5.921875 C 21.582031 -6.859375 21.894531 -7.925781 21.875 -9.125 Z M 21.875 -9.125 "/></g></g></g><g fill="#000000" fill-opacity="1"><g transform="translate(161.868174, 23.511605)"><g><path d="M 16.390625 -18.546875 C 17.960938 -18.546875 19.316406 -18.210938 20.453125 -17.546875 C 21.585938 -16.890625 22.375 -15.910156 22.8125 -14.609375 C 23.269531 -15.171875 23.882812 -15.757812 24.65625 -16.375 C 25.4375 -16.988281 26.335938 -17.503906 27.359375 -17.921875 C 28.378906 -18.335938 29.476562 -18.546875 30.65625 -18.546875 C 32.507812 -18.546875 33.960938 -18.191406 35.015625 -17.484375 C 36.066406 -16.773438 36.8125 -15.828125 37.25 -14.640625 C 37.6875 -13.460938 37.90625 -12.160156 37.90625 -10.734375 L 37.90625 0 L 34.296875 0 L 34.296875 -10.28125 C 34.296875 -11.757812 33.957031 -12.953125 33.28125 -13.859375 C 32.613281 -14.773438 31.472656 -15.234375 29.859375 -15.234375 C 28.628906 -15.234375 27.519531 -14.976562 26.53125 -14.46875 C 25.550781 -13.96875 24.773438 -13.285156 24.203125 -12.421875 C 23.640625 -11.566406 23.359375 -10.617188 23.359375 -9.578125 L 23.359375 0 L 19.75 0 L 19.75 -10.34375 C 19.75 -11.78125 19.367188 -12.953125 18.609375 -13.859375 C 17.847656 -14.773438 16.597656 -15.234375 14.859375 -15.234375 C 13.703125 -15.234375 12.675781 -14.96875 11.78125 -14.4375 C 10.894531 -13.90625 10.195312 -13.238281 9.6875 -12.4375 C 9.175781 -11.644531 8.921875 -10.851562 8.921875 -10.0625 L 8.921875 0 L 5.3125 0 L 5.3125 -18.234375 L 8.921875 -18.234375 L 8.921875 -15.28125 C 9.660156 -16.113281 10.664062 -16.863281 11.9375 -17.53125 C 13.21875 -18.207031 14.703125 -18.546875 16.390625 -18.546875 Z M 16.390625 -18.546875 "/></g></g></g><g fill="#000000" fill-opacity="1"><g transform="translate(205.052407, 23.511605)"><g><path d="M 23.5 -2.390625 L 23.46875 -2.390625 C 22.84375 -1.929688 22.054688 -1.488281 21.109375 -1.0625 C 20.160156 -0.632812 19.125 -0.289062 18 -0.03125 C 16.875 0.21875 15.722656 0.34375 14.546875 0.34375 C 12.296875 0.34375 10.316406 -0.0507812 8.609375 -0.84375 C 6.898438 -1.644531 5.5625 -2.742188 4.59375 -4.140625 C 3.632812 -5.546875 3.15625 -7.140625 3.15625 -8.921875 C 3.15625 -10.960938 3.664062 -12.703125 4.6875 -14.140625 C 5.707031 -15.585938 7.054688 -16.695312 8.734375 -17.46875 C 10.410156 -18.25 12.242188 -18.640625 14.234375 -18.640625 C 16.085938 -18.640625 17.773438 -18.265625 19.296875 -17.515625 C 20.828125 -16.765625 22.039062 -15.726562 22.9375 -14.40625 C 23.84375 -13.082031 24.296875 -11.546875 24.296875 -9.796875 L 24.265625 -8.0625 L 6.8125 -8.0625 C 7.101562 -6.476562 8 -5.226562 9.5 -4.3125 C 11.007812 -3.40625 12.890625 -2.953125 15.140625 -2.953125 C 16.785156 -2.953125 18.144531 -3.191406 19.21875 -3.671875 C 20.289062 -4.160156 21.164062 -4.625 21.84375 -5.0625 Z M 14.234375 -15.34375 C 12.429688 -15.34375 10.851562 -15.003906 9.5 -14.328125 C 8.144531 -13.660156 7.28125 -12.519531 6.90625 -10.90625 L 20.65625 -10.90625 L 20.65625 -11.359375 C 20.539062 -12.140625 20.171875 -12.832031 19.546875 -13.4375 C 18.921875 -14.039062 18.140625 -14.507812 17.203125 -14.84375 C 16.265625 -15.175781 15.273438 -15.34375 14.234375 -15.34375 Z M 14.234375 -15.34375 "/></g></g></g></svg>